{
	"asset":{
		"generator":"Khronos glTF Blender I/O v5.0.21",
		"version":"2.0"
	},
	"extensionsUsed":[
		"KHR_materials_clearcoat",
		"KHR_materials_specular"
	],
	"scene":0,
	"scenes":[
		{
			"name":"Scene",
			"nodes":[
				21
			]
		}
	],
	"nodes":[
		{
			"name":"Object_13",
			"rotation":[
				-0.70710688829422,
				0,
				0,
				0.7071066498756409
			],
			"translation":[
				-0.11252593249082565,
				93.81855773925781,
				-1.8196104764938354
			]
		},
		{
			"children":[
				0
			],
			"name":"Body"
		},
		{
			"name":"Object_29",
			"rotation":[
				-0.70710688829422,
				0,
				0,
				0.7071066498756409
			],
			"translation":[
				-0.11252975463867188,
				89.57988739013672,
				-1.281936526298523
			]
		},
		{
			"children":[
				2
			],
			"name":"Details"
		},
		{
			"name":"Object_7",
			"rotation":[
				-0.70710688829422,
				0,
				0,
				0.7071066498756409
			],
			"translation":[
				-0.11252593249082565,
				106.86914825439453,
				-1.102737307548523
			]
		},
		{
			"children":[
				4
			],
			"name":"Glass"
		},
		{
			"name":"Object_4",
			"rotation":[
				-0.70710688829422,
				0,
				0,
				0.7071066498756409
			],
			"translation":[
				-0.11254369467496872,
				101.55196380615234,
				-53.868106842041016
			]
		},
		{
			"children":[
				6
			],
			"name":"Interior"
		},
		{
			"name":"Object_26",
			"rotation":[
				-0.70710688829422,
				0,
				0,
				0.7071066498756409
			],
			"translation":[
				4.033653259277344,
				5.0067901611328125e-05,
				-2.0012283325195312
			]
		},
		{
			"children":[
				8
			],
			"name":"Shadow"
		},
		{
			"mesh":0,
			"name":"Wheel_FL_Texture_0",
			"translation":[
				3.0567157409677748e-06,
				-1.555900053062942e-05,
				0
			]
		},
		{
			"children":[
				10
			],
			"name":"Object_10",
			"rotation":[
				-0.70710688829422,
				0,
				0,
				0.7071066498756409
			],
			"translation":[
				4.852574420510791e-06,
				-5.027840416005347e-06,
				-1.8494205505703576e-05
			]
		},
		{
			"children":[
				11
			],
			"name":"Wheel_FL",
			"translation":[
				78.27182006835938,
				38.024574279785156,
				146.7866973876953
			]
		},
		{
			"name":"Object_17",
			"rotation":[
				-0.70710688829422,
				0,
				0,
				0.7071066498756409
			],
			"translation":[
				-2.776823748718016e-06,
				0,
				0
			]
		},
		{
			"children":[
				13
			],
			"name":"Wheel_FR",
			"translation":[
				-77.24130249023438,
				38.024600982666016,
				146.78672790527344
			]
		},
		{
			"name":"Object_20",
			"rotation":[
				-0.70710688829422,
				0,
				0,
				0.7071066498756409
			],
			"translation":[
				9.083292752620764e-06,
				-2.2708225060341647e-06,
				1.2023363524349406e-05
			]
		},
		{
			"children":[
				15
			],
			"name":"Wheel_RL",
			"translation":[
				78.27177429199219,
				38.02458953857422,
				-139.22047424316406
			]
		},
		{
			"name":"Object_23",
			"rotation":[
				-0.70710688829422,
				0,
				0,
				0.7071066498756409
			],
			"translation":[
				0,
				-2.2708225060341647e-06,
				0
			]
		},
		{
			"children":[
				17
			],
			"name":"Wheel_RR",
			"translation":[
				-77.24134826660156,
				38.02461624145508,
				-139.22044372558594
			]
		},
		{
			"children":[
				1,
				3,
				5,
				7,
				9,
				12,
				14,
				16,
				18
			],
			"name":"RootNode"
		},
		{
			"children":[
				19
			],
			"name":"e4cfccc019694d70938c6828a7884e2a.fbx",
			"rotation":[
				0.70710688829422,
				0,
				0,
				0.7071066498756409
			],
			"scale":[
				0.009999999776482582,
				0.010000000707805157,
				0.010000000707805157
			]
		},
		{
			"children":[
				20
			],
			"name":"Sketchfab_model",
			"rotation":[
				-0.70710688829422,
				0,
				0,
				0.7071066498756409
			]
		}
	],
	"materials":[
		{
			"doubleSided":true,
			"extensions":{
				"KHR_materials_clearcoat":{
					"clearcoatFactor":0.0248011015355587,
					"clearcoatRoughnessFactor":0.03999999910593033
				},
				"KHR_materials_specular":{
					"specularFactor":0
				}
			},
			"name":"Texture",
			"normalTexture":{
				"index":0
			},
			"pbrMetallicRoughness":{
				"baseColorTexture":{
					"index":1
				},
				"metallicRoughnessTexture":{
					"index":2
				},
				"roughnessFactor":0
			}
		},
		{
			"alphaMode":"BLEND",
			"doubleSided":true,
			"extensions":{
				"KHR_materials_clearcoat":{
					"clearcoatFactor":1,
					"clearcoatRoughnessFactor":0.03999999910593033
				}
			},
			"name":"Glass",
			"pbrMetallicRoughness":{
				"baseColorFactor":[
					0,
					0,
					0,
					0.35129687190055847
				],
				"roughnessFactor":0
			}
		},
		{
			"doubleSided":true,
			"extensions":{
				"KHR_materials_clearcoat":{
					"clearcoatFactor":1,
					"clearcoatRoughnessFactor":0.03999999910593033
				},
				"KHR_materials_specular":{
					"specularFactor":0
				}
			},
			"name":"Body",
			"normalTexture":{
				"index":3
			},
			"pbrMetallicRoughness":{
				"baseColorTexture":{
					"index":4
				},
				"metallicRoughnessTexture":{
					"index":5
				},
				"roughnessFactor":0.1589595079421997
			}
		}
	],
	"meshes":[
		{
			"name":"Wheel_FL_Texture_0.001",
			"primitives":[
				{
					"attributes":{
						"POSITION":0,
						"NORMAL":1,
						"TEXCOORD_0":2,
						"TEXCOORD_1":3,
						"TEXCOORD_2":4,
						"TEXCOORD_3":5,
						"TANGENT":6
					},
					"indices":7,
					"material":0
				},
				{
					"attributes":{
						"POSITION":8,
						"NORMAL":9,
						"TEXCOORD_0":10,
						"TEXCOORD_1":11,
						"TEXCOORD_2":12,
						"TEXCOORD_3":13,
						"TANGENT":14
					},
					"indices":15,
					"material":1
				},
				{
					"attributes":{
						"POSITION":16,
						"NORMAL":17,
						"TEXCOORD_0":18,
						"TEXCOORD_1":19,
						"TEXCOORD_2":20,
						"TEXCOORD_3":21,
						"TANGENT":22
					},
					"indices":23,
					"material":2
				}
			]
		}
	],
	"textures":[
		{
			"sampler":0,
			"source":0
		},
		{
			"sampler":0,
			"source":1
		},
		{
			"sampler":0,
			"source":2
		},
		{
			"sampler":0,
			"source":0
		},
		{
			"sampler":0,
			"source":3
		},
		{
			"sampler":0,
			"source":2
		}
	],
	"images":[
		{
			"mimeType":"image/png",
			"name":"Image_2",
			"uri":"Image_2.png"
		},
		{
			"mimeType":"image/png",
			"name":"Image_0",
			"uri":"Image_0.png"
		},
		{
			"mimeType":"image/png",
			"name":"Image_1",
			"uri":"Image_1.png"
		},
		{
			"mimeType":"image/png",
			"name":"Image_3",
			"uri":"Image_3.png"
		}
	],
	"accessors":[
		{
			"bufferView":0,
			"componentType":5126,
			"count":1439,
			"max":[
				25.922746658325195,
				384.8023681640625,
				119.2571029663086
			],
			"min":[
				-182.69287109375,
				-87.7323226928711,
				-38.64628601074219
			],
			"type":"VEC3"
		},
		{
			"bufferView":1,
			"componentType":5126,
			"count":1439,
			"type":"VEC3"
		},
		{
			"bufferView":2,
			"componentType":5126,
			"count":1439,
			"type":"VEC2"
		},
		{
			"bufferView":3,
			"componentType":5126,
			"count":1439,
			"type":"VEC2"
		},
		{
			"bufferView":4,
			"componentType":5126,
			"count":1439,
			"type":"VEC2"
		},
		{
			"bufferView":5,
			"componentType":5126,
			"count":1439,
			"type":"VEC2"
		},
		{
			"bufferView":6,
			"componentType":5126,
			"count":1439,
			"type":"VEC4"
		},
		{
			"bufferView":7,
			"componentType":5123,
			"count":2460,
			"type":"SCALAR"
		},
		{
			"bufferView":8,
			"componentType":5126,
			"count":253,
			"max":[
				7.334741592407227,
				376.2164306640625,
				119.30014038085938
			],
			"min":[
				-163.83297729492188,
				-79.64115905761719,
				33.384796142578125
			],
			"type":"VEC3"
		},
		{
			"bufferView":9,
			"componentType":5126,
			"count":253,
			"type":"VEC3"
		},
		{
			"bufferView":10,
			"componentType":5126,
			"count":253,
			"type":"VEC2"
		},
		{
			"bufferView":11,
			"componentType":5126,
			"count":253,
			"type":"VEC2"
		},
		{
			"bufferView":12,
			"componentType":5126,
			"count":253,
			"type":"VEC2"
		},
		{
			"bufferView":13,
			"componentType":5126,
			"count":253,
			"type":"VEC2"
		},
		{
			"bufferView":14,
			"componentType":5126,
			"count":253,
			"type":"VEC4"
		},
		{
			"bufferView":15,
			"componentType":5123,
			"count":345,
			"type":"SCALAR"
		},
		{
			"bufferView":16,
			"componentType":5126,
			"count":810,
			"max":[
				26.020721435546875,
				386.92364501953125,
				125.97940063476562
			],
			"min":[
				-182.948486328125,
				-88.64103698730469,
				-15.968791961669922
			],
			"type":"VEC3"
		},
		{
			"bufferView":17,
			"componentType":5126,
			"count":810,
			"type":"VEC3"
		},
		{
			"bufferView":18,
			"componentType":5126,
			"count":810,
			"type":"VEC2"
		},
		{
			"bufferView":19,
			"componentType":5126,
			"count":810,
			"type":"VEC2"
		},
		{
			"bufferView":20,
			"componentType":5126,
			"count":810,
			"type":"VEC2"
		},
		{
			"bufferView":21,
			"componentType":5126,
			"count":810,
			"type":"VEC2"
		},
		{
			"bufferView":22,
			"componentType":5126,
			"count":810,
			"type":"VEC4"
		},
		{
			"bufferView":23,
			"componentType":5123,
			"count":1860,
			"type":"SCALAR"
		}
	],
	"bufferViews":[
		{
			"buffer":0,
			"byteLength":17268,
			"byteOffset":0,
			"target":34962
		},
		{
			"buffer":0,
			"byteLength":17268,
			"byteOffset":17268,
			"target":34962
		},
		{
			"buffer":0,
			"byteLength":11512,
			"byteOffset":34536,
			"target":34962
		},
		{
			"buffer":0,
			"byteLength":11512,
			"byteOffset":46048,
			"target":34962
		},
		{
			"buffer":0,
			"byteLength":11512,
			"byteOffset":57560,
			"target":34962
		},
		{
			"buffer":0,
			"byteLength":11512,
			"byteOffset":69072,
			"target":34962
		},
		{
			"buffer":0,
			"byteLength":23024,
			"byteOffset":80584,
			"target":34962
		},
		{
			"buffer":0,
			"byteLength":4920,
			"byteOffset":103608,
			"target":34963
		},
		{
			"buffer":0,
			"byteLength":3036,
			"byteOffset":108528,
			"target":34962
		},
		{
			"buffer":0,
			"byteLength":3036,
			"byteOffset":111564,
			"target":34962
		},
		{
			"buffer":0,
			"byteLength":2024,
			"byteOffset":114600,
			"target":34962
		},
		{
			"buffer":0,
			"byteLength":2024,
			"byteOffset":116624,
			"target":34962
		},
		{
			"buffer":0,
			"byteLength":2024,
			"byteOffset":118648,
			"target":34962
		},
		{
			"buffer":0,
			"byteLength":2024,
			"byteOffset":120672,
			"target":34962
		},
		{
			"buffer":0,
			"byteLength":4048,
			"byteOffset":122696,
			"target":34962
		},
		{
			"buffer":0,
			"byteLength":690,
			"byteOffset":126744,
			"target":34963
		},
		{
			"buffer":0,
			"byteLength":9720,
			"byteOffset":127436,
			"target":34962
		},
		{
			"buffer":0,
			"byteLength":9720,
			"byteOffset":137156,
			"target":34962
		},
		{
			"buffer":0,
			"byteLength":6480,
			"byteOffset":146876,
			"target":34962
		},
		{
			"buffer":0,
			"byteLength":6480,
			"byteOffset":153356,
			"target":34962
		},
		{
			"buffer":0,
			"byteLength":6480,
			"byteOffset":159836,
			"target":34962
		},
		{
			"buffer":0,
			"byteLength":6480,
			"byteOffset":166316,
			"target":34962
		},
		{
			"buffer":0,
			"byteLength":12960,
			"byteOffset":172796,
			"target":34962
		},
		{
			"buffer":0,
			"byteLength":3720,
			"byteOffset":185756,
			"target":34963
		}
	],
	"samplers":[
		{
			"magFilter":9729,
			"minFilter":9987
		}
	],
	"buffers":[
		{
			"byteLength":189476,
			"uri":"suv.bin"
		}
	]
}
