{
	"asset":{
		"generator":"Khronos glTF Blender I/O v5.0.21",
		"version":"2.0"
	},
	"extensionsUsed":[
		"KHR_materials_specular",
		"KHR_materials_ior"
	],
	"scene":0,
	"scenes":[
		{
			"name":"Scene",
			"nodes":[
				0,
				1,
				2,
				3,
				4
			]
		}
	],
	"nodes":[
		{
			"mesh":0,
			"name":"monitor"
		},
		{
			"mesh":1,
			"name":"led"
		},
		{
			"mesh":2,
			"name":"glass"
		},
		{
			"mesh":3,
			"name":"button"
		},
		{
			"mesh":4,
			"name":"base"
		}
	],
	"materials":[
		{
			"doubleSided":true,
			"name":"painted metal.002",
			"pbrMetallicRoughness":{
				"baseColorFactor":[
					0.6441270709037781,
					0.61846524477005,
					0.5217182040214539,
					1
				],
				"metallicFactor":0,
				"roughnessFactor":0.5292307734489441
			}
		},
		{
			"doubleSided":true,
			"extensions":{
				"KHR_materials_specular":{
					"specularFactor":0
				},
				"KHR_materials_ior":{
					"ior":1.4500000476837158
				}
			},
			"name":"black.002",
			"pbrMetallicRoughness":{
				"baseColorFactor":[
					0,
					0,
					0,
					1
				],
				"metallicFactor":0
			}
		},
		{
			"doubleSided":true,
			"emissiveFactor":[
				0.12535734474658966,
				0.3447665870189667,
				0.07971766591072083
			],
			"extensions":{
				"KHR_materials_specular":{
					"specularColorFactor":[
						2.0,
						2.0,
						2.0
					]
				},
				"KHR_materials_ior":{
					"ior":1.4500000476837158
				}
			},
			"name":"led.002",
			"pbrMetallicRoughness":{
				"baseColorFactor":[
					0.26293832063674927,
					0.8000000715255737,
					0.11087041348218918,
					1
				],
				"metallicFactor":0,
				"roughnessFactor":0
			}
		},
		{
			"doubleSided":true,
			"name":"glass",
			"pbrMetallicRoughness":{
				"baseColorFactor":[
					0,
					0,
					0,
					1
				],
				"roughnessFactor":0
			}
		},
		{
			"doubleSided":true,
			"name":"grey plastic.002",
			"pbrMetallicRoughness":{
				"baseColorFactor":[
					0.3146648705005646,
					0.3146648705005646,
					0.3146648705005646,
					1
				],
				"metallicFactor":0,
				"roughnessFactor":0.38923078775405884
			}
		},
		{
			"doubleSided":true,
			"name":"dark grey.002",
			"pbrMetallicRoughness":{
				"baseColorFactor":[
					0.10860184580087662,
					0.10860184580087662,
					0.10860184580087662,
					1
				],
				"metallicFactor":0,
				"roughnessFactor":0.5953845977783203
			}
		}
	],
	"meshes":[
		{
			"name":"Cube.006",
			"primitives":[
				{
					"attributes":{
						"POSITION":0,
						"NORMAL":1,
						"TEXCOORD_0":2,
						"TANGENT":3
					},
					"indices":4,
					"material":0
				},
				{
					"attributes":{
						"POSITION":5,
						"NORMAL":6,
						"TEXCOORD_0":7,
						"TANGENT":8
					},
					"indices":9,
					"material":1
				}
			]
		},
		{
			"name":"Sphere.002",
			"primitives":[
				{
					"attributes":{
						"POSITION":10,
						"NORMAL":11,
						"TEXCOORD_0":12,
						"TANGENT":13
					},
					"indices":14,
					"material":2
				},
				{
					"attributes":{
						"POSITION":15,
						"NORMAL":16,
						"TEXCOORD_0":17,
						"TANGENT":18
					},
					"indices":19,
					"material":0
				}
			]
		},
		{
			"name":"Cube.007",
			"primitives":[
				{
					"attributes":{
						"POSITION":20,
						"NORMAL":21,
						"TEXCOORD_0":22,
						"TANGENT":23
					},
					"indices":24,
					"material":3
				},
				{
					"attributes":{
						"POSITION":25,
						"NORMAL":26,
						"TEXCOORD_0":27,
						"TANGENT":28
					},
					"indices":29,
					"material":1
				}
			]
		},
		{
			"name":"Cylinder.002",
			"primitives":[
				{
					"attributes":{
						"POSITION":30,
						"NORMAL":31,
						"TEXCOORD_0":32,
						"TANGENT":33
					},
					"indices":34,
					"material":4
				},
				{
					"attributes":{
						"POSITION":35,
						"NORMAL":36,
						"TEXCOORD_0":37,
						"TANGENT":38
					},
					"indices":39,
					"material":0
				},
				{
					"attributes":{
						"POSITION":40,
						"NORMAL":41,
						"TEXCOORD_0":42,
						"TANGENT":43
					},
					"indices":44,
					"material":5
				}
			]
		},
		{
			"name":"Cube.008",
			"primitives":[
				{
					"attributes":{
						"POSITION":45,
						"NORMAL":46,
						"TEXCOORD_0":47,
						"TANGENT":48
					},
					"indices":49,
					"material":0
				}
			]
		}
	],
	"accessors":[
		{
			"bufferView":0,
			"componentType":5126,
			"count":616,
			"max":[
				0.2344784140586853,
				0.5005480051040649,
				0.2353004366159439
			],
			"min":[
				-0.2309805154800415,
				0.03421996533870697,
				-0.23027729988098145
			],
			"type":"VEC3"
		},
		{
			"bufferView":1,
			"componentType":5126,
			"count":616,
			"type":"VEC3"
		},
		{
			"bufferView":2,
			"componentType":5126,
			"count":616,
			"type":"VEC2"
		},
		{
			"bufferView":3,
			"componentType":5126,
			"count":616,
			"type":"VEC4"
		},
		{
			"bufferView":4,
			"componentType":5123,
			"count":1116,
			"type":"SCALAR"
		},
		{
			"bufferView":5,
			"componentType":5126,
			"count":460,
			"max":[
				0.06866727769374847,
				0.319805383682251,
				-0.22957836091518402
			],
			"min":[
				-0.06483215093612671,
				0.20715928077697754,
				-0.23027729988098145
			],
			"type":"VEC3"
		},
		{
			"bufferView":6,
			"componentType":5126,
			"count":460,
			"type":"VEC3"
		},
		{
			"bufferView":7,
			"componentType":5126,
			"count":460,
			"type":"VEC2"
		},
		{
			"bufferView":8,
			"componentType":5126,
			"count":460,
			"type":"VEC4"
		},
		{
			"bufferView":9,
			"componentType":5123,
			"count":576,
			"type":"SCALAR"
		},
		{
			"bufferView":10,
			"componentType":5126,
			"count":11,
			"max":[
				0.14484718441963196,
				0.06817540526390076,
				0.2398470938205719
			],
			"min":[
				0.136795312166214,
				0.060177404433488846,
				0.2355404645204544
			],
			"type":"VEC3"
		},
		{
			"bufferView":11,
			"componentType":5126,
			"count":11,
			"type":"VEC3"
		},
		{
			"bufferView":12,
			"componentType":5126,
			"count":11,
			"type":"VEC2"
		},
		{
			"bufferView":13,
			"componentType":5126,
			"count":11,
			"type":"VEC4"
		},
		{
			"bufferView":14,
			"componentType":5123,
			"count":39,
			"type":"SCALAR"
		},
		{
			"bufferView":15,
			"componentType":5126,
			"count":13,
			"max":[
				0.14484718441963196,
				0.06817540526390076,
				0.2356707751750946
			],
			"min":[
				0.136795312166214,
				0.06005330756306648,
				0.23513463139533997
			],
			"type":"VEC3"
		},
		{
			"bufferView":16,
			"componentType":5126,
			"count":13,
			"type":"VEC3"
		},
		{
			"bufferView":17,
			"componentType":5126,
			"count":13,
			"type":"VEC2"
		},
		{
			"bufferView":18,
			"componentType":5126,
			"count":13,
			"type":"VEC4"
		},
		{
			"bufferView":19,
			"componentType":5123,
			"count":18,
			"type":"SCALAR"
		},
		{
			"bufferView":20,
			"componentType":5126,
			"count":75,
			"max":[
				0.17412808537483215,
				0.43996724486351013,
				0.22413969039916992
			],
			"min":[
				-0.17035380005836487,
				0.11584275960922241,
				0.1991349309682846
			],
			"type":"VEC3"
		},
		{
			"bufferView":21,
			"componentType":5126,
			"count":75,
			"type":"VEC3"
		},
		{
			"bufferView":22,
			"componentType":5126,
			"count":75,
			"type":"VEC2"
		},
		{
			"bufferView":23,
			"componentType":5126,
			"count":75,
			"type":"VEC4"
		},
		{
			"bufferView":24,
			"componentType":5123,
			"count":249,
			"type":"SCALAR"
		},
		{
			"bufferView":25,
			"componentType":5126,
			"count":66,
			"max":[
				0.17412808537483215,
				0.43996724486351013,
				0.21286919713020325
			],
			"min":[
				-0.17035380005836487,
				0.11584275960922241,
				0.1991349309682846
			],
			"type":"VEC3"
		},
		{
			"bufferView":26,
			"componentType":5126,
			"count":66,
			"type":"VEC3"
		},
		{
			"bufferView":27,
			"componentType":5126,
			"count":66,
			"type":"VEC2"
		},
		{
			"bufferView":28,
			"componentType":5126,
			"count":66,
			"type":"VEC4"
		},
		{
			"bufferView":29,
			"componentType":5123,
			"count":165,
			"type":"SCALAR"
		},
		{
			"bufferView":30,
			"componentType":5126,
			"count":152,
			"max":[
				0.17157618701457977,
				0.07517421990633011,
				0.23783238232135773
			],
			"min":[
				0.15151844918727875,
				0.055075503885746,
				0.2356187403202057
			],
			"type":"VEC3"
		},
		{
			"bufferView":31,
			"componentType":5126,
			"count":152,
			"type":"VEC3"
		},
		{
			"bufferView":32,
			"componentType":5126,
			"count":152,
			"type":"VEC2"
		},
		{
			"bufferView":33,
			"componentType":5126,
			"count":152,
			"type":"VEC4"
		},
		{
			"bufferView":34,
			"componentType":5123,
			"count":210,
			"type":"SCALAR"
		},
		{
			"bufferView":35,
			"componentType":5126,
			"count":123,
			"max":[
				0.17245957255363464,
				0.07615569978952408,
				0.23665618896484375
			],
			"min":[
				0.1506839245557785,
				0.054096877574920654,
				0.2343658208847046
			],
			"type":"VEC3"
		},
		{
			"bufferView":36,
			"componentType":5126,
			"count":123,
			"type":"VEC3"
		},
		{
			"bufferView":37,
			"componentType":5126,
			"count":123,
			"type":"VEC2"
		},
		{
			"bufferView":38,
			"componentType":5126,
			"count":123,
			"type":"VEC4"
		},
		{
			"bufferView":39,
			"componentType":5123,
			"count":153,
			"type":"SCALAR"
		},
		{
			"bufferView":40,
			"componentType":5126,
			"count":138,
			"max":[
				0.16751980781555176,
				0.07243712991476059,
				0.23783238232135773
			],
			"min":[
				0.1555931121110916,
				0.05912772938609123,
				0.23662127554416656
			],
			"type":"VEC3"
		},
		{
			"bufferView":41,
			"componentType":5126,
			"count":138,
			"type":"VEC3"
		},
		{
			"bufferView":42,
			"componentType":5126,
			"count":138,
			"type":"VEC2"
		},
		{
			"bufferView":43,
			"componentType":5126,
			"count":138,
			"type":"VEC4"
		},
		{
			"bufferView":44,
			"componentType":5123,
			"count":144,
			"type":"SCALAR"
		},
		{
			"bufferView":45,
			"componentType":5126,
			"count":242,
			"max":[
				0.16418078541755676,
				0.051190029829740524,
				0.15373729169368744
			],
			"min":[
				-0.15945109724998474,
				0.0004954421892762184,
				-0.16984878480434418
			],
			"type":"VEC3"
		},
		{
			"bufferView":46,
			"componentType":5126,
			"count":242,
			"type":"VEC3"
		},
		{
			"bufferView":47,
			"componentType":5126,
			"count":242,
			"type":"VEC2"
		},
		{
			"bufferView":48,
			"componentType":5126,
			"count":242,
			"type":"VEC4"
		},
		{
			"bufferView":49,
			"componentType":5123,
			"count":300,
			"type":"SCALAR"
		}
	],
	"bufferViews":[
		{
			"buffer":0,
			"byteLength":7392,
			"byteOffset":0,
			"target":34962
		},
		{
			"buffer":0,
			"byteLength":7392,
			"byteOffset":7392,
			"target":34962
		},
		{
			"buffer":0,
			"byteLength":4928,
			"byteOffset":14784,
			"target":34962
		},
		{
			"buffer":0,
			"byteLength":9856,
			"byteOffset":19712,
			"target":34962
		},
		{
			"buffer":0,
			"byteLength":2232,
			"byteOffset":29568,
			"target":34963
		},
		{
			"buffer":0,
			"byteLength":5520,
			"byteOffset":31800,
			"target":34962
		},
		{
			"buffer":0,
			"byteLength":5520,
			"byteOffset":37320,
			"target":34962
		},
		{
			"buffer":0,
			"byteLength":3680,
			"byteOffset":42840,
			"target":34962
		},
		{
			"buffer":0,
			"byteLength":7360,
			"byteOffset":46520,
			"target":34962
		},
		{
			"buffer":0,
			"byteLength":1152,
			"byteOffset":53880,
			"target":34963
		},
		{
			"buffer":0,
			"byteLength":132,
			"byteOffset":55032,
			"target":34962
		},
		{
			"buffer":0,
			"byteLength":132,
			"byteOffset":55164,
			"target":34962
		},
		{
			"buffer":0,
			"byteLength":88,
			"byteOffset":55296,
			"target":34962
		},
		{
			"buffer":0,
			"byteLength":176,
			"byteOffset":55384,
			"target":34962
		},
		{
			"buffer":0,
			"byteLength":78,
			"byteOffset":55560,
			"target":34963
		},
		{
			"buffer":0,
			"byteLength":156,
			"byteOffset":55640,
			"target":34962
		},
		{
			"buffer":0,
			"byteLength":156,
			"byteOffset":55796,
			"target":34962
		},
		{
			"buffer":0,
			"byteLength":104,
			"byteOffset":55952,
			"target":34962
		},
		{
			"buffer":0,
			"byteLength":208,
			"byteOffset":56056,
			"target":34962
		},
		{
			"buffer":0,
			"byteLength":36,
			"byteOffset":56264,
			"target":34963
		},
		{
			"buffer":0,
			"byteLength":900,
			"byteOffset":56300,
			"target":34962
		},
		{
			"buffer":0,
			"byteLength":900,
			"byteOffset":57200,
			"target":34962
		},
		{
			"buffer":0,
			"byteLength":600,
			"byteOffset":58100,
			"target":34962
		},
		{
			"buffer":0,
			"byteLength":1200,
			"byteOffset":58700,
			"target":34962
		},
		{
			"buffer":0,
			"byteLength":498,
			"byteOffset":59900,
			"target":34963
		},
		{
			"buffer":0,
			"byteLength":792,
			"byteOffset":60400,
			"target":34962
		},
		{
			"buffer":0,
			"byteLength":792,
			"byteOffset":61192,
			"target":34962
		},
		{
			"buffer":0,
			"byteLength":528,
			"byteOffset":61984,
			"target":34962
		},
		{
			"buffer":0,
			"byteLength":1056,
			"byteOffset":62512,
			"target":34962
		},
		{
			"buffer":0,
			"byteLength":330,
			"byteOffset":63568,
			"target":34963
		},
		{
			"buffer":0,
			"byteLength":1824,
			"byteOffset":63900,
			"target":34962
		},
		{
			"buffer":0,
			"byteLength":1824,
			"byteOffset":65724,
			"target":34962
		},
		{
			"buffer":0,
			"byteLength":1216,
			"byteOffset":67548,
			"target":34962
		},
		{
			"buffer":0,
			"byteLength":2432,
			"byteOffset":68764,
			"target":34962
		},
		{
			"buffer":0,
			"byteLength":420,
			"byteOffset":71196,
			"target":34963
		},
		{
			"buffer":0,
			"byteLength":1476,
			"byteOffset":71616,
			"target":34962
		},
		{
			"buffer":0,
			"byteLength":1476,
			"byteOffset":73092,
			"target":34962
		},
		{
			"buffer":0,
			"byteLength":984,
			"byteOffset":74568,
			"target":34962
		},
		{
			"buffer":0,
			"byteLength":1968,
			"byteOffset":75552,
			"target":34962
		},
		{
			"buffer":0,
			"byteLength":306,
			"byteOffset":77520,
			"target":34963
		},
		{
			"buffer":0,
			"byteLength":1656,
			"byteOffset":77828,
			"target":34962
		},
		{
			"buffer":0,
			"byteLength":1656,
			"byteOffset":79484,
			"target":34962
		},
		{
			"buffer":0,
			"byteLength":1104,
			"byteOffset":81140,
			"target":34962
		},
		{
			"buffer":0,
			"byteLength":2208,
			"byteOffset":82244,
			"target":34962
		},
		{
			"buffer":0,
			"byteLength":288,
			"byteOffset":84452,
			"target":34963
		},
		{
			"buffer":0,
			"byteLength":2904,
			"byteOffset":84740,
			"target":34962
		},
		{
			"buffer":0,
			"byteLength":2904,
			"byteOffset":87644,
			"target":34962
		},
		{
			"buffer":0,
			"byteLength":1936,
			"byteOffset":90548,
			"target":34962
		},
		{
			"buffer":0,
			"byteLength":3872,
			"byteOffset":92484,
			"target":34962
		},
		{
			"buffer":0,
			"byteLength":600,
			"byteOffset":96356,
			"target":34963
		}
	],
	"buffers":[
		{
			"byteLength":96956,
			"uri":"crt.bin"
		}
	]
}
