{
	"asset":{
		"generator":"Khronos glTF Blender I/O v5.0.21",
		"version":"2.0"
	},
	"scene":0,
	"scenes":[
		{
			"name":"Scene",
			"nodes":[
				0,
				1,
				2
			]
		}
	],
	"nodes":[
		{
			"mesh":0,
			"name":"shroom"
		},
		{
			"mesh":1,
			"name":"shroom.001"
		},
		{
			"mesh":2,
			"name":"shroom.002"
		}
	],
	"materials":[
		{
			"doubleSided":true,
			"name":"ArmorPaintMtl",
			"pbrMetallicRoughness":{
				"baseColorTexture":{
					"index":0
				},
				"metallicFactor":0,
				"roughnessFactor":0.949999988079071
			}
		}
	],
	"meshes":[
		{
			"name":"shroom",
			"primitives":[
				{
					"attributes":{
						"POSITION":0,
						"NORMAL":1,
						"TEXCOORD_0":2
					},
					"indices":3,
					"material":0
				}
			]
		},
		{
			"name":"shroom.001",
			"primitives":[
				{
					"attributes":{
						"POSITION":4,
						"NORMAL":5,
						"TEXCOORD_0":6
					},
					"indices":3,
					"material":0
				}
			]
		},
		{
			"name":"shroom.002",
			"primitives":[
				{
					"attributes":{
						"POSITION":7,
						"NORMAL":8,
						"TEXCOORD_0":9
					},
					"indices":3,
					"material":0
				}
			]
		}
	],
	"textures":[
		{
			"sampler":0,
			"source":0
		}
	],
	"images":[
		{
			"mimeType":"image/png",
			"name":"mushroom_base",
			"uri":"mushroom_base.png"
		}
	],
	"accessors":[
		{
			"bufferView":0,
			"componentType":5126,
			"count":154,
			"max":[
				0.05391022190451622,
				0.17945370078086853,
				0.06416065990924835
			],
			"min":[
				-0.056751418858766556,
				4.598498344421387e-05,
				-0.04650097340345383
			],
			"type":"VEC3"
		},
		{
			"bufferView":1,
			"componentType":5126,
			"count":154,
			"type":"VEC3"
		},
		{
			"bufferView":2,
			"componentType":5126,
			"count":154,
			"type":"VEC2"
		},
		{
			"bufferView":3,
			"componentType":5123,
			"count":552,
			"type":"SCALAR"
		},
		{
			"bufferView":4,
			"componentType":5126,
			"count":154,
			"max":[
				0.03721899539232254,
				0.13478994369506836,
				0.047530245035886765
			],
			"min":[
				-0.040369484573602676,
				0.0005283728241920471,
				-0.030058231204748154
			],
			"type":"VEC3"
		},
		{
			"bufferView":5,
			"componentType":5126,
			"count":154,
			"type":"VEC3"
		},
		{
			"bufferView":6,
			"componentType":5126,
			"count":154,
			"type":"VEC2"
		},
		{
			"bufferView":7,
			"componentType":5126,
			"count":154,
			"max":[
				0.020910419523715973,
				0.08371663093566895,
				0.031170126050710678
			],
			"min":[
				-0.024333413690328598,
				-1.667812466621399e-05,
				-0.014073701575398445
			],
			"type":"VEC3"
		},
		{
			"bufferView":8,
			"componentType":5126,
			"count":154,
			"type":"VEC3"
		},
		{
			"bufferView":9,
			"componentType":5126,
			"count":154,
			"type":"VEC2"
		}
	],
	"bufferViews":[
		{
			"buffer":0,
			"byteLength":1848,
			"byteOffset":0,
			"target":34962
		},
		{
			"buffer":0,
			"byteLength":1848,
			"byteOffset":1848,
			"target":34962
		},
		{
			"buffer":0,
			"byteLength":1232,
			"byteOffset":3696,
			"target":34962
		},
		{
			"buffer":0,
			"byteLength":1104,
			"byteOffset":4928,
			"target":34963
		},
		{
			"buffer":0,
			"byteLength":1848,
			"byteOffset":6032,
			"target":34962
		},
		{
			"buffer":0,
			"byteLength":1848,
			"byteOffset":7880,
			"target":34962
		},
		{
			"buffer":0,
			"byteLength":1232,
			"byteOffset":9728,
			"target":34962
		},
		{
			"buffer":0,
			"byteLength":1848,
			"byteOffset":10960,
			"target":34962
		},
		{
			"buffer":0,
			"byteLength":1848,
			"byteOffset":12808,
			"target":34962
		},
		{
			"buffer":0,
			"byteLength":1232,
			"byteOffset":14656,
			"target":34962
		}
	],
	"samplers":[
		{
			"magFilter":9729,
			"minFilter":9987
		}
	],
	"buffers":[
		{
			"byteLength":15888,
			"uri":"mushroom.bin"
		}
	]
}
