{
	"asset":{
		"generator":"Khronos glTF Blender I/O v5.0.21",
		"version":"2.0"
	},
	"scene":0,
	"scenes":[
		{
			"name":"Scene",
			"nodes":[
				0
			]
		}
	],
	"nodes":[
		{
			"mesh":0,
			"name":"BodyParts3D_Tooth"
		}
	],
	"meshes":[
		{
			"name":"BodyParts3D_Tooth",
			"primitives":[
				{
					"attributes":{
						"POSITION":0,
						"NORMAL":1
					},
					"indices":2
				}
			]
		}
	],
	"accessors":[
		{
			"bufferView":0,
			"componentType":5126,
			"count":1148,
			"max":[
				2.021869659423828,
				1.5767256021499634,
				1.5736851692199707
			],
			"min":[
				-2.0139713287353516,
				-1.9698423147201538,
				-1.9493930339813232
			],
			"type":"VEC3"
		},
		{
			"bufferView":1,
			"componentType":5126,
			"count":1148,
			"type":"VEC3"
		},
		{
			"bufferView":2,
			"componentType":5123,
			"count":6528,
			"type":"SCALAR"
		}
	],
	"bufferViews":[
		{
			"buffer":0,
			"byteLength":13776,
			"byteOffset":0,
			"target":34962
		},
		{
			"buffer":0,
			"byteLength":13776,
			"byteOffset":13776,
			"target":34962
		},
		{
			"buffer":0,
			"byteLength":13056,
			"byteOffset":27552,
			"target":34963
		}
	],
	"buffers":[
		{
			"byteLength":40608,
			"uri":"teeth.bin"
		}
	]
}
