{
	"asset":{
		"generator":"Khronos glTF Blender I/O v5.0.21",
		"version":"2.0"
	},
	"scene":0,
	"scenes":[
		{
			"name":"Scene",
			"nodes":[
				0
			]
		}
	],
	"nodes":[
		{
			"mesh":0,
			"name":"Scan_the_World_-_Piet\u00e0_(Michelangelo)"
		}
	],
	"materials":[
		{
			"doubleSided":true,
			"name":"Material",
			"pbrMetallicRoughness":{
				"baseColorFactor":[
					0.31804358959198,
					0.26656845211982727,
					0.17553609609603882,
					1
				],
				"metallicFactor":0,
				"roughnessFactor":0.16363632678985596
			}
		}
	],
	"meshes":[
		{
			"name":"Scan_the_World_-_Piet\u00e0_(Michelangelo)",
			"primitives":[
				{
					"attributes":{
						"POSITION":0,
						"NORMAL":1
					},
					"indices":2,
					"material":0
				}
			]
		}
	],
	"accessors":[
		{
			"bufferView":0,
			"componentType":5126,
			"count":1082,
			"max":[
				0.7268036603927612,
				1.3780299425125122,
				0.6103995442390442
			],
			"min":[
				-0.706043541431427,
				-0.0029570856131613255,
				-0.3344714343547821
			],
			"type":"VEC3"
		},
		{
			"bufferView":1,
			"componentType":5126,
			"count":1082,
			"type":"VEC3"
		},
		{
			"bufferView":2,
			"componentType":5123,
			"count":7038,
			"type":"SCALAR"
		}
	],
	"bufferViews":[
		{
			"buffer":0,
			"byteLength":12984,
			"byteOffset":0,
			"target":34962
		},
		{
			"buffer":0,
			"byteLength":12984,
			"byteOffset":12984,
			"target":34962
		},
		{
			"buffer":0,
			"byteLength":14076,
			"byteOffset":25968,
			"target":34963
		}
	],
	"buffers":[
		{
			"byteLength":40044,
			"uri":"jc.bin"
		}
	]
}
